<svg xmlns="http://www.w3.org/2000/svg" version="1.0" width="1024.000000pt" height="1024.000000pt" viewBox="0 0 1024.000000 1024.000000" preserveAspectRatio="xMidYMid meet">

<g transform="translate(0.000000,1024.000000) scale(0.100000,-0.100000)" fill="#2cd673" stroke="none">
<path d="M5050 8581 c-129 -42 -218 -140 -222 -244 l-2 -45 -86 -17 c-211 -41 -500 -165 -672 -288 -270 -193 -453 -406 -589 -682 -147 -299 -186 -502 -188 -959 l0 -199 -139 -78 c-382 -212 -665 -452 -795 -674 -143 -244 -83 -432 183 -569 77 -40 260 -103 350 -120 29 -6 41 -17 72 -66 153 -245 861 -476 1703 -555 200 -19 687 -22 900 -6 743 58 1421 274 1639 523 93 107 115 244 57 362 -38 78 -152 190 -264 260 l-77 48 0 154 c0 148 1 154 22 165 47 25 218 140 333 224 461 337 695 612 712 839 10 130 -48 216 -192 282 -171 79 -358 108 -701 109 l-252 0 -17 55 c-26 85 -137 305 -201 400 -187 277 -444 501 -727 635 -110 52 -299 117 -414 141 -73 15 -83 20 -83 39 0 79 -84 196 -173 241 -53 27 -135 39 -177 25z m127 -216 c78 -90 -58 -213 -140 -127 -39 40 -37 93 3 134 28 27 36 30 73 25 28 -4 49 -14 64 -32z m258 -304 c331 -68 615 -225 845 -468 203 -214 338 -467 401 -751 19 -85 22 -137 26 -419 3 -178 7 -323 9 -323 2 0 49 30 104 67 l100 66 0 196 c0 176 -10 334 -26 400 l-5 24 143 -6 c221 -8 348 -50 399 -130 28 -44 21 -127 -17 -199 -40 -74 -195 -226 -343 -337 -843 -626 -2332 -1111 -3416 -1111 -477 0 -774 78 -860 225 -61 104 -19 214 144 375 91 90 255 219 329 259 l22 12 0 -329 0 -329 -26 -24 -26 -24 34 -7 c75 -16 362 -29 508 -23 635 27 1374 195 2059 468 l155 61 -85 23 c-132 37 -339 72 -521 90 l-168 17 0 90 c0 181 27 330 80 443 23 50 34 64 57 69 135 29 235 68 345 132 229 134 364 352 408 657 21 153 12 165 -122 165 -253 -1 -452 -61 -603 -183 -127 -102 -222 -246 -268 -406 l-24 -83 -17 53 c-44 135 -143 289 -245 380 -75 68 -157 112 -266 145 -78 23 -114 27 -262 31 -152 5 -176 3 -199 -12 -26 -17 -26 -20 -20 -84 8 -85 46 -228 84 -313 110 -243 318 -400 612 -460 52 -11 98 -22 102 -26 13 -13 65 -127 82 -177 27 -85 46 -215 46 -321 l0 -101 -102 -7 c-504 -33 -1001 -173 -1332 -374 -37 -23 -70 -42 -73 -42 -2 0 -2 287 0 638 5 677 5 680 57 869 93 340 334 663 655 880 182 122 447 220 685 253 112 15 421 4 535 -19z m220 -1034 c-226 -189 -347 -349 -441 -584 -16 -40 -32 -73 -35 -73 -10 0 2 124 17 180 53 192 184 342 420 480 88 51 102 50 39 -3z m-1051 -39 c228 -131 356 -276 401 -456 9 -35 15 -67 13 -73 -2 -5 -35 39 -74 98 -92 139 -207 268 -329 368 -54 44 -110 90 -124 102 -49 42 1 24 113 -39z m2099 -1761 c-120 -133 -698 -354 -1173 -446 -124 -25 -437 -70 -485 -71 -5 0 -3 -5 5 -10 24 -16 574 -12 733 5 466 49 831 169 1043 341 l55 45 47 -40 c133 -112 166 -176 127 -250 -40 -79 -234 -195 -450 -271 -148 -51 -462 -139 -590 -165 -348 -69 -627 -98 -955 -98 -285 0 -491 19 -649 59 -149 38 -140 47 34 40 459 -21 862 3 1191 69 206 42 232 65 51 46 -322 -34 -814 -16 -1366 50 -157 19 -596 101 -609 114 -3 3 21 5 54 5 52 0 126 6 314 25 357 36 794 113 1135 200 480 122 873 266 1260 460 l240 120 3 -104 c2 -88 0 -107 -15 -124z" fill="#2cd673"/>
<path d="M883 2935 l-190 -536 115 3 115 3 37 110 37 110 198 0 198 0 37 -110 37 -110 116 -3 117 -3 -10 23 c-6 13 -93 253 -194 533 l-184 510 -119 3 -119 3 -191 -536z m374 98 c33 -104 64 -198 68 -210 l6 -23 -141 0 c-109 0 -141 3 -137 13 2 6 33 101 68 209 35 109 66 198 69 198 3 0 33 -84 67 -187z" fill="#2cd673"/>
<path d="M4240 2935 l0 -535 105 0 105 0 0 210 0 210 190 0 190 0 0 68 c0 37 3 77 6 90 l6 22 -196 0 -196 0 0 140 0 140 209 0 208 0 2 95 2 95 -316 0 -315 0 0 -535z" fill="#2cd673"/>
<path d="M2565 3373 c-22 -2 -58 -5 -80 -8 l-40 -5 3 -95 3 -95 -55 0 -56 0 0 -80 0 -80 55 0 55 0 0 -230 c0 -246 5 -277 53 -328 44 -48 96 -66 182 -66 44 0 99 6 122 12 l41 12 4 80 c2 64 0 79 -10 75 -31 -12 -89 -15 -117 -7 -17 5 -40 23 -52 42 -22 31 -23 42 -23 226 l0 194 100 0 100 0 0 75 0 75 -100 0 -100 0 0 105 c0 118 10 106 -85 98z" fill="#2cd673"/>
<path d="M1902 3171 c-63 -22 -127 -80 -144 -130 -20 -60 -15 -151 11 -205 31 -64 76 -91 202 -122 134 -33 168 -64 143 -129 -26 -67 -212 -55 -326 20 l-38 25 0 -90 0 -91 54 -25 c111 -51 266 -56 367 -13 97 42 149 139 135 253 -14 106 -72 159 -226 202 -106 29 -150 57 -150 94 0 80 98 99 240 47 30 -11 61 -24 68 -30 7 -5 14 -8 16 -6 2 2 7 38 11 79 l7 75 -39 19 c-100 49 -236 60 -331 27z" fill="#2cd673"/>
<path d="M3273 3179 c-32 -9 -97 -66 -120 -104 -10 -17 -12 -11 -12 43 l-1 62 -105 0 -105 0 0 -390 0 -390 104 0 105 0 3 233 c3 260 8 277 79 325 29 20 44 23 102 20 l68 -3 -3 105 -3 105 -40 2 c-22 1 -55 -3 -72 -8z" fill="#2cd673"/>
<path d="M3648 3171 c-72 -23 -117 -51 -163 -103 -124 -136 -133 -384 -20 -538 142 -194 476 -198 616 -7 117 159 110 406 -16 545 -96 107 -270 150 -417 103z m217 -188 c59 -32 95 -105 95 -190 0 -75 -14 -125 -47 -163 -93 -111 -267 -76 -308 63 -36 121 -1 245 80 290 47 25 133 25 180 0z" fill="#2cd673"/>
<path d="M5115 3184 c-81 -19 -155 -49 -159 -63 -3 -9 -8 -51 -12 -94 l-6 -77 48 21 c199 85 364 52 364 -72 l0 -39 -79 0 c-97 0 -215 -22 -270 -49 -103 -53 -140 -194 -82 -310 69 -133 290 -160 416 -50 l35 31 0 -41 0 -41 96 0 95 0 -3 293 c-3 284 -4 293 -27 340 -28 56 -67 91 -141 126 -46 21 -72 26 -155 27 -55 2 -109 1 -120 -2z m235 -512 c0 -71 -15 -95 -75 -117 -90 -35 -175 2 -175 76 0 71 47 95 193 98 l57 1 0 -58z" fill="#2cd673"/>
<path d="M6529 3181 c-42 -14 -72 -32 -106 -64 l-33 -31 0 49 0 48 -77 -7 c-42 -3 -87 -6 -100 -6 l-23 0 0 -385 0 -385 100 0 100 0 0 249 c0 241 1 249 23 282 59 89 195 89 241 1 11 -22 15 -84 17 -280 l2 -252 106 0 106 0 -3 247 c-3 280 2 302 68 335 71 36 161 12 192 -52 16 -30 18 -67 18 -282 l0 -248 106 0 106 0 -5 293 c-4 325 -7 341 -69 412 -97 111 -306 114 -417 8 l-45 -43 -29 35 c-43 52 -99 78 -182 81 -38 2 -82 0 -96 -5z" fill="#2cd673"/>
<path d="M7707 3175 c-110 -31 -197 -116 -239 -233 -29 -81 -28 -226 2 -316 55 -166 212 -256 425 -243 91 6 177 26 207 49 13 10 19 36 24 101 l7 88 -34 -20 c-55 -32 -138 -51 -219 -51 -123 0 -203 50 -225 143 l-7 27 262 0 263 0 -5 108 c-4 94 -8 115 -36 173 -36 75 -91 131 -161 162 -58 26 -194 33 -264 12z m204 -160 c31 -16 58 -60 70 -112 l7 -33 -169 0 c-129 0 -169 3 -169 13 1 22 37 92 58 110 51 46 138 55 203 22z" fill="#2cd673"/>
<path d="M8943 3171 c-106 -36 -154 -97 -161 -208 -5 -70 9 -121 45 -164 35 -41 87 -66 194 -90 103 -24 129 -43 129 -93 0 -51 -36 -76 -110 -76 -69 0 -171 30 -222 65 l-38 26 0 -90 0 -91 48 -24 c91 -45 227 -59 330 -33 116 31 182 115 182 234 0 134 -46 182 -225 238 -121 38 -145 55 -145 102 0 75 102 90 241 36 l77 -30 6 45 c13 97 10 108 -36 130 -100 46 -222 56 -315 23z" fill="#2cd673"/>
<path d="M5735 3171 l-70 -6 0 -383 0 -382 103 0 102 0 0 223 c0 250 8 282 71 328 28 20 46 24 106 24 l73 0 0 104 0 104 -64 -5 c-76 -6 -120 -30 -159 -85 l-27 -38 0 63 0 62 -32 -2 c-18 -1 -64 -4 -103 -7z" fill="#2cd673"/>
<path d="M8328 3173 l-58 -4 0 -384 0 -385 105 0 105 0 0 223 c0 211 1 225 23 267 34 68 65 85 153 85 l74 0 0 103 0 102 -52 0 c-70 0 -132 -31 -166 -83 l-27 -41 -3 62 -3 62 -47 -2 c-26 -1 -73 -3 -104 -5z" fill="#2cd673"/>
</g>
</svg>